<svg width="600px" height="80px" xmlns="http://www.w3.org/2000/svg" viewBox="0 0 600 80">
<!-- Left braid -->
<path d="
	M -20 65 c 23 0 37 -20 60 -20
	m -60 17 c 23 0 37 -14 60 -14
" stroke="#f8f5f2" stroke-width="9" fill="none" />
<path d="
	M -20 65 c 23 0 37 -20 60 -20
	m -60 17 c 23 0 37 -14 60 -14
" stroke="#000" stroke-width="3" fill="none" />

<path d="
	M 0 45 c 23 0 37 20 60 20
	m -60 -17 c 23 0 37 14 60 14
" stroke="#f8f5f2" stroke-width="9" fill="none" />
<path d="
	M 0 45 c 23 0 37 20 60 20
	m -60 -17 c 23 0 37 14 60 14
" stroke="#000" stroke-width="3" fill="none" />

<path d="
	M 20 65 c 23 0 37 -20 60 -20
	m -60 17 c 23 0 37 -14 60 -14
" stroke="#f8f5f2" stroke-width="9" fill="none" />
<path d="
	M 20 65 c 23 0 37 -20 60 -20
	m -60 17 c 23 0 37 -14 60 -14
" stroke="#000" stroke-width="3" fill="none" />

<path d="
	M 40 45 c 23 0 37 20 60 20
	m -60 -17 c 23 0 37 14 60 14
" stroke="#f8f5f2" stroke-width="9" fill="none" />
<path d="
	M 40 45 c 23 0 37 20 60 20
	m -60 -17 c 23 0 37 14 60 14
" stroke="#000" stroke-width="3" fill="none" />

<path d="
	M 60 65 c 23 0 37 -20 60 -20
	m -60 17 c 23 0 37 -14 60 -14
" stroke="#f8f5f2" stroke-width="9" fill="none" />
<path d="
	M 60 65 c 23 0 37 -20 60 -20
	m -60 17 c 23 0 37 -14 60 -14
" stroke="#000" stroke-width="3" fill="none" />

<path d="
	M 80 45 c 23 0 37 20 60 20
	m -60 -17 c 23 0 37 14 60 14
" stroke="#f8f5f2" stroke-width="9" fill="none" />
<path d="
	M 80 45 c 23 0 37 20 60 20
	m -60 -17 c 23 0 37 14 60 14
" stroke="#000" stroke-width="3" fill="none" />

<path d="
	M 100 65 c 23 0 37 -20 60 -20
	m -60 17 c 23 0 37 -14 60 -14
" stroke="#f8f5f2" stroke-width="9" fill="none" />
<path d="
	M 100 65 c 23 0 37 -20 60 -20
	m -60 17 c 23 0 37 -14 60 -14
" stroke="#000" stroke-width="3" fill="none" />

<path d="
	M 120 45 c 23 0 37 20 60 20
	m -60 -17 c 23 0 37 14 60 14
" stroke="#f8f5f2" stroke-width="9" fill="none" />
<path d="
	M 120 45 c 23 0 37 20 60 20
	m -60 -17 c 23 0 37 14 60 14
" stroke="#000" stroke-width="3" fill="none" />

<path d="
	M 140 65 c 23 0 37 -20 60 -20
	m -60 17 c 23 0 37 -14 60 -14
" stroke="#f8f5f2" stroke-width="9" fill="none" />
<path d="
	M 140 65 c 23 0 37 -20 60 -20
	m -60 17 c 23 0 37 -14 60 -14
" stroke="#000" stroke-width="3" fill="none" />

<path d="
	M 160 45 c 23 0 37 20 60 20
	m -60 -17 c 23 0 37 14 60 14
" stroke="#f8f5f2" stroke-width="9" fill="none" />
<path d="
	M 160 45 c 23 0 37 20 60 20
	m -60 -17 c 23 0 37 14 60 14
" stroke="#000" stroke-width="3" fill="none" />

<path d="
	M 180 65 c 23 0 37 -20 60 -20
	m -60 17 c 23 0 37 -14 60 -14
" stroke="#f8f5f2" stroke-width="9" fill="none" />
<path d="
	M 180 65 c 23 0 37 -20 60 -20
	m -60 17 c 23 0 37 -14 60 -14
" stroke="#000" stroke-width="3" fill="none" />

<path d="
	M 200 45 c 23 0 37 20 60 20
	m -60 -17 c 23 0 37 14 60 14
" stroke="#f8f5f2" stroke-width="9" fill="none" />
<path d="
	M 200 45 c 23 0 37 20 60 20
	m -60 -17 c 23 0 37 14 60 14
" stroke="#000" stroke-width="3" fill="none" />

<path d="
	M 220 65 c 23 0 37 -20 60 -20
	m -60 17 c 23 0 37 -14 60 -14
" stroke="#f8f5f2" stroke-width="9" fill="none" />
<path d="
	M 220 65 c 23 0 37 -20 60 -20
	m -60 17 c 23 0 37 -14 60 -14
" stroke="#000" stroke-width="3" fill="none" />

<path d="
	M 240 45 c 23 0 37 20 60 20
	m -60 -17 c 23 0 37 14 60 14
" stroke="#f8f5f2" stroke-width="9" fill="none" />
<path d="
	M 240 45 c 23 0 37 20 60 20
	m -60 -17 c 23 0 37 14 60 14
" stroke="#000" stroke-width="3" fill="none" />

<path d="
	M 260 65 c 23 0 37 -20 60 -20
	m -60 17 c 23 0 37 -14 60 -14
" stroke="#f8f5f2" stroke-width="9" fill="none" />
<path d="
	M 260 65 c 23 0 37 -20 60 -20
	m -60 17 c 23 0 37 -14 60 -14
" stroke="#000" stroke-width="3" fill="none" />

<!-- Right braid -->
<path d="
	M 620 65 c -23 0 -37 -20 -60 -20
	m 60 17 c -23 0 -37 -14 -60 -14
" stroke="#f8f5f2" stroke-width="9" fill="none" />
<path d="
	M 620 65 c -23 0 -37 -20 -60 -20
	m 60 17 c -23 0 -37 -14 -60 -14
" stroke="#000" stroke-width="3" fill="none" />

<path d="
	M 600 45 c -23 0 -37 20 -60 20
	m 60 -17 c -23 0 -37 14 -60 14
" stroke="#f8f5f2" stroke-width="9" fill="none" />
<path d="
	M 600 45 c -23 0 -37 20 -60 20
	m 60 -17 c -23 0 -37 14 -60 14
" stroke="#000" stroke-width="3" fill="none" />

<path d="
	M 580 65 c -23 0 -37 -20 -60 -20
	m 60 17 c -23 0 -37 -14 -60 -14
" stroke="#f8f5f2" stroke-width="9" fill="none" />
<path d="
	M 580 65 c -23 0 -37 -20 -60 -20
	m 60 17 c -23 0 -37 -14 -60 -14
" stroke="#000" stroke-width="3" fill="none" />

<path d="
	M 560 45 c -23 0 -37 20 -60 20
	m 60 -17 c -23 0 -37 14 -60 14
" stroke="#f8f5f2" stroke-width="9" fill="none" />
<path d="
	M 560 45 c -23 0 -37 20 -60 20
	m 60 -17 c -23 0 -37 14 -60 14
" stroke="#000" stroke-width="3" fill="none" />

<path d="
	M 540 65 c -23 0 -37 -20 -60 -20
	m 60 17 c -23 0 -37 -14 -60 -14
" stroke="#f8f5f2" stroke-width="9" fill="none" />
<path d="
	M 540 65 c -23 0 -37 -20 -60 -20
	m 60 17 c -23 0 -37 -14 -60 -14
" stroke="#000" stroke-width="3" fill="none" />

<path d="
	M 520 45 c -23 0 -37 20 -60 20
	m 60 -17 c -23 0 -37 14 -60 14
" stroke="#f8f5f2" stroke-width="9" fill="none" />
<path d="
	M 520 45 c -23 0 -37 20 -60 20
	m 60 -17 c -23 0 -37 14 -60 14
" stroke="#000" stroke-width="3" fill="none" />

<path d="
	M 500 65 c -23 0 -37 -20 -60 -20
	m 60 17 c -23 0 -37 -14 -60 -14
" stroke="#f8f5f2" stroke-width="9" fill="none" />
<path d="
	M 500 65 c -23 0 -37 -20 -60 -20
	m 60 17 c -23 0 -37 -14 -60 -14
" stroke="#000" stroke-width="3" fill="none" />

<path d="
	M 480 45 c -23 0 -37 20 -60 20
	m 60 -17 c -23 0 -37 14 -60 14
" stroke="#f8f5f2" stroke-width="9" fill="none" />
<path d="
	M 480 45 c -23 0 -37 20 -60 20
	m 60 -17 c -23 0 -37 14 -60 14
" stroke="#000" stroke-width="3" fill="none" />

<path d="
	M 460 65 c -23 0 -37 -20 -60 -20
	m 60 17 c -23 0 -37 -14 -60 -14
" stroke="#f8f5f2" stroke-width="9" fill="none" />
<path d="
	M 460 65 c -23 0 -37 -20 -60 -20
	m 60 17 c -23 0 -37 -14 -60 -14
" stroke="#000" stroke-width="3" fill="none" />

<path d="
	M 440 45 c -23 0 -37 20 -60 20
	m 60 -17 c -23 0 -37 14 -60 14
" stroke="#f8f5f2" stroke-width="9" fill="none" />
<path d="
	M 440 45 c -23 0 -37 20 -60 20
	m 60 -17 c -23 0 -37 14 -60 14
" stroke="#000" stroke-width="3" fill="none" />

<path d="
	M 420 65 c -23 0 -37 -20 -60 -20
	m 60 17 c -23 0 -37 -14 -60 -14
" stroke="#f8f5f2" stroke-width="9" fill="none" />
<path d="
	M 420 65 c -23 0 -37 -20 -60 -20
	m 60 17 c -23 0 -37 -14 -60 -14
" stroke="#000" stroke-width="3" fill="none" />

<path d="
	M 400 45 c -23 0 -37 20 -60 20
	m 60 -17 c -23 0 -37 14 -60 14
" stroke="#f8f5f2" stroke-width="9" fill="none" />
<path d="
	M 400 45 c -23 0 -37 20 -60 20
	m 60 -17 c -23 0 -37 14 -60 14
" stroke="#000" stroke-width="3" fill="none" />

<path d="
	M 380 65 c -23 0 -37 -20 -60 -20
	m 60 17 c -23 0 -37 -14 -60 -14
" stroke="#f8f5f2" stroke-width="9" fill="none" />
<path d="
	M 380 65 c -23 0 -37 -20 -60 -20
	m 60 17 c -23 0 -37 -14 -60 -14
" stroke="#000" stroke-width="3" fill="none" />

<path d="
	M 360 45 c -23 0 -37 20 -60 20
	m 60 -17 c -23 0 -37 14 -60 14
" stroke="#f8f5f2" stroke-width="9" fill="none" />
<path d="
	M 360 45 c -23 0 -37 20 -60 20
	m 60 -17 c -23 0 -37 14 -60 14
" stroke="#000" stroke-width="3" fill="none" />

<path d="
	M 340 65 c -23 0 -37 -20 -60 -20
	m 60 17 c -23 0 -37 -14 -60 -14
" stroke="#f8f5f2" stroke-width="9" fill="none" />
<path d="
	M 340 65 c -23 0 -37 -20 -60 -20
	m 60 17 c -23 0 -37 -14 -60 -14
" stroke="#000" stroke-width="3" fill="none" />

<!-- Edge covers -->
<path d="
	M 0 40
	l 20 0 l 0 30
	l -20 0 l 0 -30
" stroke="none" fill="#f8f5f2" />
<path d="
	M 580 40
	l 20 0 l 0 30
	l -20 0 l 0 -30
" stroke="none" fill="#f8f5f2" />

<!-- Left wall -->
<path d="
	M 5 55 c 0 -15 5 -25 5 -40
	m -2 40 c 0 -15 2 -25 2 -40
	l 0 -15
	M 18 55 c 0 -15 2 -25 2 -40
	m 2 40 c 0 -15 -2 -25 -2 -40
	l 0 -15
	M 35 55 c 0 -15 -5 -25 -5 -40
	m 2 40 c 0 -15 -2 -25 -2 -40
	l 0 -15
" stroke="#000" stroke-width="3" fill="none" />

<!-- Right wall -->
<path d="
	M 565 55 c 0 -15 5 -25 5 -40
	m -2 40 c 0 -15 2 -25 2 -40
	l 0 -15
	M 578 55 c 0 -15 2 -25 2 -40
	m 2 40 c 0 -15 -2 -25 -2 -40
	l 0 -15
	M 595 55 c 0 -15 -5 -25 -5 -40
	m 2 40 c 0 -15 -2 -25 -2 -40
	l 0 -15
" stroke="#000" stroke-width="3" fill="none" />

<!-- Corner pieces -->
<path d="
	M 20 40
	a 15 15 0 0 0 0 30
	a 15 15 0 0 0 0 -30
" stroke="#000" stroke-width="4" fill="#f8f5f2" />
<path d="
	M 580 40
	a 15 15 0 0 0 0 30
	a 15 15 0 0 0 0 -30
" stroke="#000" stroke-width="4" fill="#f8f5f2" />
</svg>
