<svg width="600" height="200" xmlns="http://www.w3.org/2000/svg">
<!-- Frame middle -->
<!-- Middle goes first so the tops and bottoms can be covered later -->
<svg x="0" y="0" width="100%" height="100%" xmlns="http://www.w3.org/2000/svg" viewBox="0 0 600 40" preserveAspectRatio="none">
<!-- Left wall -->
<path d="
	M 10 0
	l 0 40
" stroke="#000" stroke-width="4" fill="none" />
<path d="
	M 20 0
	l 0 40
" stroke="#000" stroke-width="2" fill="none" />

<!-- Right wall -->
<path d="
	M 590 0
	l 0 40
" stroke="#000" stroke-width="4" fill="none" />
<path d="
	M 580 0
	l 0 40
" stroke="#000" stroke-width="2" fill="none" />
</svg>

<!-- Frame bottom -->
<svg  x="0" y="100%" width="100%" height="40%" xmlns="http://www.w3.org/2000/svg" viewBox="0 80 600 80" preserveAspectRatio="xMidYMin" style="overflow: visible;">
<rect width="600" height="80" x="0" y="0" rx="0" ry="0" fill="#f8f5f2" />
<path d="
	M 10 0
	l 0 60
	q 10 0 10 10
	l 560 0
	q 0 -10 10 -10
	l 0 -60
" stroke="#000" stroke-width="4" fill="none" />
<path d="
	M 20 0
	l 0 50
	q 10 0 10 10
	l 540 0
	q 0 -10 10 -10
	l 0 -50
" stroke="#000" stroke-width="2" fill="none" />
</svg>

<!-- Frame top -->
<svg x="0" y="0" width="100%" height="60%" xmlns="http://www.w3.org/2000/svg" viewBox="0 0 600 120" preserveAspectRatio="xMidYMin">
<rect width="600" height="120" x="0" y="0" rx="0" ry="0" fill="#f8f5f2" />
<path d="
	M 10 120
	l 0 -60
	q 10 0 10 -10
	l 230.7 0
	a 50 50 0 0 0 98.6 0
	l 230.7 0
	q 0 10 10 10
	l 0 60
" stroke="#000" stroke-width="4" fill="none" />
<path d="
	M 20 120
	l 0 -50
	q 10 0 10 -10
	l 213 0
	a 60 60 0 0 0 114 0
	l 213 0
	q 0 10 10 10
	l 0 50
" stroke="#000" stroke-width="2" fill="none" />
<path d="
	M 300 2
	a 40 40 0 0 0 0 80
	a 40 40 0 0 0 0 -80
" stroke="#000" stroke-width="4" fill="#f8f5f2" />
</svg>
</svg>
