<svg width="420px" height="140px" xmlns="http://www.w3.org/2000/svg" viewBox="0 0 4200 1400"><path d="M898 891a1054 1054 0 00 40-155q20-110 38-187t40-128q11-28 25-50a200 200 0 01 24-29q28-29 65-45 30-10 36-20a19 19 0 00 2-2q4-7 0-14a25 25 0 00-2-4 730 730 0 00-55-20 953 953 0 00-70-20Q970 200 895 200q-138 0-240 46a512 512 0 00-55 28 410 410 0 00-110 95q-63 77-84 180a468 468 0 00-10 97v21a543 543 0 00 13 96q4 7 11 5 7-3 10-12-22-104-6-193a422 422 0 01 7-33 350 350 0 01 58-122q50-66 133-103a412 412 0 01 99-30 570 570 0 01 95-7 876 876 0 01 64 2 682 682 0 01 75 10q33 6 62 14a514 514 0 01 48 16 300 300 0 00-18 9 331 331 0 00-57 43 240 240 0 00-11 10q-29 31-55 78-19 35-37 80a1092 1092 0 00-20 60 1020 1020 0 00-13 42q-20 70-36 165a1832 1832 0 01-8 45q-12 55-26 104a970 970 0 01-30 90q-20 49-43 89a405 405 0 01-53 70q-58 60-139 88-45 15-100 22a710 710 0 01-89 5 415 415 0 01-33 0q-35-4-64-13a197 197 0 01-75-40q-60-55-60-141a240 240 0 01 0-21 194 194 0 01 26-82q26-45 73-70a32 32 0 00 0-2L200 934a10 10 0 00-2-5q-4-6-13-4-86 29-135 92a270 270 0 00-10 14 213 213 0 00-40 123q0 51 23 91a195 195 0 00 50 58q52 40 132 52a523 523 0 00 80 6q120 0 227-40Q620 1280 705 1200a635 635 0 00 65-71 760 760 0 00 80-126 835 835 0 00 48-113ZM3366 0q27 0 44 14a76 76 0 01 22 31 94 94 0 01 2 7 110 110 0 01 5 24V100a174 174 0 01-1 5 175 175 0 01-15 52 201 201 0 01-3 7q-4 3-9 3-5-1-7-9 2-13-2-22a36 36 0 00-13-18q-14-10-37-13a135 135 0 00-13 0 300 300 0 00-143 37 392 392 0 00-44 27q-72 52-138 148a998 998 0 00-32 51q-63 104-117 252a2474 2474 0 00-30 88 3020 3020 0 00-50 166q-39 147-72 325a216 216 0 00-4 20q-4 27 2 47a66 66 0 00 4 11l5 10a22 22 0 00 18 7 50 50 0 00 25-7 73 73 0 00 13-9 147 147 0 00 19-21 194 194 0 00 13-20 6 6 0 01 4-2l6 2a12 12 0 01 2 2q4 3 2 8-9 18-26 38t-38 37a216 216 0 01-34 24 196 196 0 01-9 4q-22 10-40 10a85 85 0 01-22-2 53 53 0 01-34-26q-16-29-13-65a775 775 0 01 6-37 655 655 0 01 3-20l13-58q-36 77-100 134-56 48-110 69a245 245 0 01-19 6 90 90 0 01-33-6 81 81 0 01-33-25q-25-30-25-79 0-70 25-134 25-64 68-113 43-48 103-77 60-29 128-29a193 193 0 01 33 3 145 145 0 01 33 10q33-97 78-203 45-105 99-206 54-100 114-192 60-92 123-160a733 733 0 01 63-62 545 545 0 01 65-47 298 298 0 01 52-27q35-13 69-14a186 186 0 01 5 0ZM1082 666a5734 5734 0 00 40 134 4270 4270 0 00 38 120 1270 1270 0 00 36 93q20 45 40 83a730 730 0 00 10 17 522 522 0 00 40 60q25 29 50 50a293 293 0 00 16 13 218 218 0 00 120 42 273 273 0 00 15 0 141 141 0 00 47-8 128 128 0 00 27-13q32-20 52-53a10 10 0 01 2-1q4-3 10 2 5 5 3 13a20 20 0 01 0 2q-33 62-90 101-57 40-127 40-83 0-146-50a409 409 0 01-64-64 558 558 0 01-48-70q-50-84-87-196a3060 3060 0 01-51-175 3473 3473 0 01-16-60q-2-10 0-18 0-8 9-17 81-104 168-198A1810 1810 0 01 1280 410a1456 1456 0 01 70-60q86-70 166-110a434 434 0 01 61-25q35-11 67-14a241 241 0 01 21-1 77 77 0 01 25 4 63 63 0 01 30 23 102 102 0 01 20 49 132 132 0 01 0 16 250 250 0 01 0 22l-6 37a480 480 0 01-6 28l-7 24a273 273 0 01-2 7 33 33 0 01-3 2q-10 5-14-5a24 24 0 01-1-2 126 126 0 00 2-16q3-33-15-59-16-24-55-30a180 180 0 00-26-1q-115 0-252 97-118 84-236 224a1959 1959 0 00-37 46Zm676 690a99 99 0 00 31 5q40 0 92-42a477 477 0 00 36-31q76-73 144-197-32 90-32 182 0 66 43 83a92 92 0 00 32 5q20 0 44-11a188 188 0 00 24-13q20-14 40-35a299 299 0 00 27-37 16 16 0 00 0-1q1-4 0-7a10 10 0 00-3-2 12 12 0 00-2-2h-7a12 12 0 00-2 2 280 280 0 01-14 18q-18 21-34 30a44 44 0 01-20 6 24 24 0 01-20-9q-8-10-10-30a162 162 0 01-1-19 672 672 0 01 1-41 520 520 0 01 5-48q6-40 19-80a612 612 0 01 4-13 681 681 0 01 27-67 1505 1505 0 01 21-42 1952 1952 0 01 24-46q9-12-10-14a77 77 0 00-7 0q-27 0-53 10-26 12-31 22-33 67-71 132a1666 1666 0 01-34 54 1293 1293 0 01-43 62 847 847 0 01-14 18q-30 39-58 65a236 236 0 01-10 8q-17 14-31 20a46 46 0 01-16 3 28 28 0 01-18-5q-15-12-15-47a414 414 0 01 7-75 508 508 0 01 28-96q35-88 93-164 2-5 1-9a9 9 0 00-2-3q-3-3-8-4a29 29 0 00-5 0 590 590 0 00-49 20 762 762 0 00-60 34q-57 34-88 67-2 4 0 9a16 16 0 00 1 2q4 6 9 4a9 9 0 00 1-1 271 271 0 01 9-8 315 315 0 01 24-20l37-26q-25 38-43 80a1078 1078 0 00 0 2 990 990 0 00-31 80 579 579 0 00-8 24 491 491 0 00-12 53 587 587 0 00-2 10q-4 32-4 57a180 180 0 00 0 1q0 63 44 77Zm2200-377a325 325 0 00 2-27 101 101 0 00 0-10l-3-14a44 44 0 00-8-14 27 27 0 00-2-3q-8-8-24-10A96 96 0 00 3910 900q-22 0-43 9-20 9-40 22a299 299 0 00-4 4 267 267 0 00-30 25 322 322 0 00-14 15 244 244 0 00-12 15q-3 7 3 12a13 13 0 00 2 0q5 4 12-1a214 214 0 01 13-17 168 168 0 01 22-22 96 96 0 01 5-4q16-11 32-11 10 0 14 8a21 21 0 01 0 6 87 87 0 01 1 2l-1 27a440 440 0 01-2 13 1157 1157 0 01-6 37 1497 1497 0 01-8 40 1302 1302 0 01-5 22 1463 1463 0 01-17 66q-12 45-28 90a1395 1395 0 01-11 31 1155 1155 0 01-20 50 56 56 0 00 0 1q-9 20 10 20h15a182 182 0 00 10-2l29-7 24-10a42 42 0 00 2-2l6-5a20 20 0 00 5-10 1963 1963 0 01 3-13q28-99 58-168a584 584 0 01 33-64q27-44 56-65a98 98 0 01 58-20 74 74 0 01 9 0l10 2a31 31 0 01 11 7 37 37 0 01 1 0 28 28 0 01 9 21 7 7 0 00 2 5 11 11 0 00 2 2q2 2 5 1a7 7 0 00 2 0 72 72 0 00 4-6l12-20a454 454 0 00 6-14q10-20 13-35a64 64 0 00 0-12 52 52 0 00 0-3 40 40 0 00-14-30 44 44 0 00-10-6l-15-5a93 93 0 00-16-1 102 102 0 00-22 2q-22 5-43 20a179 179 0 00-29 27 320 320 0 00-22 28q-15 22-30 50a685 685 0 00-27 57 890 890 0 00 2-10 801 801 0 00 13-60l4-35Zm-276 75a82 82 0 00 33-64 76 76 0 00-12-41 107 107 0 00-18-21 100 100 0 00-43-24 138 138 0 00-35-4 156 156 0 00-53 10 204 204 0 00-43 21 306 306 0 00-29 22 346 346 0 00-56 60q-37 50-60 111a375 375 0 00-13 42 296 296 0 00-10 74 215 215 0 00 0 17q2 18 6 33a103 103 0 00 21 40q28 30 91 30t118-32a374 374 0 00 17-11 320 320 0 00 74-70q2-7-2-13a10 10 0 00 0-2q-4-3-9-2a15 15 0 00-1 1 157 157 0 01-19 22 178 178 0 01-39 29 176 176 0 01-28 12 130 130 0 01-42 7 152 152 0 01-15 0l-24-5a67 67 0 01-30-20 77 77 0 01-10-17q-11-22-11-55a842 842 0 01 0-10 732 732 0 01 0-28l3-36q177-24 239-76Zm-500-150a166 166 0 00-36-4 167 167 0 00-50 8 199 199 0 00-50 24q-49 33-86 81-37 49-60 107a355 355 0 00-14 46 272 272 0 00-8 63 180 180 0 00 3 33 130 130 0 00 29 62q31 37 92 37 38 0 85-26a300 300 0 00 38-26 365 365 0 00 50-46q40-46 68-107a298 298 0 00 6-15 310 310 0 00 22-115q0-50-31-88a93 93 0 00-17-17q-17-12-40-17Zm-725 387a48 48 0 00 15-3q13-4 28-16a182 182 0 00 4-2q27-20 56-56 28-35 54-80a630 630 0 00 43-99q7-16 12-33a405 405 0 00 8-28 360 360 0 00 1-6 52 52 0 00-26-30 63 63 0 00-2-1 102 102 0 00-36-10 122 122 0 00-10 0 132 132 0 00-57 14 167 167 0 00-16 8 203 203 0 00-47 42 250 250 0 00-16 20 321 321 0 00-29 53 416 416 0 00-15 41 366 366 0 00-15 76 452 452 0 00-2 43 101 101 0 00 2 21q3 15 11 27a45 45 0 00 14 13q10 6 23 6Zm590 14a100 100 0 00 70-28q13-13 25-30a208 208 0 00 26-58q13-44 13-104 0-47-17-80a130 130 0 00-5-10 78 78 0 00-19-21q-16-13-38-14a90 90 0 00-6 0 102 102 0 00-80 37 159 159 0 00-14 18 190 190 0 00-21 48q-14 46-15 112a639 639 0 00 0 4q0 60 21 92a83 83 0 00 2 2 81 81 0 00 19 20 67 67 0 00 40 12Zm512-358q-42 0-72 38a151 151 0 00-18 33q-15 35-22 87 76-8 117-28a144 144 0 00 10-5 115 115 0 00 20-15q22-20 22-45a75 75 0 00-4-25 65 65 0 00-12-21q-16-20-41-20Z" fill="#000" fill-rule="evenodd"/></svg>
